<mxfile host="www.draw.io" modified="2020-01-30T12:15:50.094Z" agent="Mozilla/5.0 (Macintosh; Intel Mac OS X 10_14_6) AppleWebKit/537.36 (KHTML, like Gecko) Chrome/79.0.3945.117 Safari/537.36" etag="1PuWz6xyOMESS5jJm5lV" version="12.6.2" type="github">
  <diagram id="50PFHMBwWoru9Kx3dnVT" name="Page-1">
    <mxGraphModel dx="807" dy="548" grid="1" gridSize="10" guides="1" tooltips="1" connect="1" arrows="1" fold="1" page="1" pageScale="1" pageWidth="827" pageHeight="1169" math="0" shadow="0">
      <root>
        <mxCell id="0"/>
        <mxCell id="1" parent="0"/>
        <mxCell id="EUaZMrfHuvkhfZzwmmWV-1" value="MLPipeline" style="swimlane;fontStyle=0;childLayout=stackLayout;horizontal=1;startSize=26;fillColor=none;horizontalStack=0;resizeParent=1;resizeParentMax=0;resizeLast=0;collapsible=1;marginBottom=0;" parent="1" vertex="1" collapsed="1">
          <mxGeometry x="190" y="190" width="100" height="26" as="geometry">
            <mxRectangle x="90" y="130" width="140" height="52" as="alternateBounds"/>
          </mxGeometry>
        </mxCell>
        <mxCell id="EUaZMrfHuvkhfZzwmmWV-8" value="Model" style="swimlane;fontStyle=0;childLayout=stackLayout;horizontal=1;startSize=26;fillColor=none;horizontalStack=0;resizeParent=1;resizeParentMax=0;resizeLast=0;collapsible=1;marginBottom=0;" parent="1" vertex="1" collapsed="1">
          <mxGeometry x="580" y="140" width="100" height="26" as="geometry">
            <mxRectangle x="90" y="130" width="140" height="52" as="alternateBounds"/>
          </mxGeometry>
        </mxCell>
        <mxCell id="EUaZMrfHuvkhfZzwmmWV-9" value="Endpoint" style="swimlane;fontStyle=0;childLayout=stackLayout;horizontal=1;startSize=26;fillColor=none;horizontalStack=0;resizeParent=1;resizeParentMax=0;resizeLast=0;collapsible=1;marginBottom=0;" parent="1" vertex="1" collapsed="1">
          <mxGeometry x="580" y="184" width="100" height="26" as="geometry">
            <mxRectangle x="90" y="130" width="140" height="52" as="alternateBounds"/>
          </mxGeometry>
        </mxCell>
        <mxCell id="EUaZMrfHuvkhfZzwmmWV-10" value="TrainingSet" style="swimlane;fontStyle=0;childLayout=stackLayout;horizontal=1;startSize=26;fillColor=none;horizontalStack=0;resizeParent=1;resizeParentMax=0;resizeLast=0;collapsible=1;marginBottom=0;" parent="1" vertex="1" collapsed="1">
          <mxGeometry x="580" y="226" width="100" height="26" as="geometry">
            <mxRectangle x="90" y="130" width="140" height="52" as="alternateBounds"/>
          </mxGeometry>
        </mxCell>
        <mxCell id="EUaZMrfHuvkhfZzwmmWV-20" style="edgeStyle=orthogonalEdgeStyle;rounded=0;orthogonalLoop=1;jettySize=auto;html=1;exitX=1;exitY=0.5;exitDx=0;exitDy=0;entryX=0;entryY=0.5;entryDx=0;entryDy=0;endArrow=none;endFill=0;startArrow=diamondThin;startFill=1;" parent="1" source="EUaZMrfHuvkhfZzwmmWV-16" target="EUaZMrfHuvkhfZzwmmWV-8" edge="1">
          <mxGeometry relative="1" as="geometry"/>
        </mxCell>
        <mxCell id="EUaZMrfHuvkhfZzwmmWV-21" style="edgeStyle=orthogonalEdgeStyle;rounded=0;orthogonalLoop=1;jettySize=auto;html=1;exitX=1;exitY=0.5;exitDx=0;exitDy=0;entryX=0;entryY=0.5;entryDx=0;entryDy=0;startArrow=diamondThin;startFill=1;endArrow=none;endFill=0;" parent="1" source="EUaZMrfHuvkhfZzwmmWV-16" target="EUaZMrfHuvkhfZzwmmWV-9" edge="1">
          <mxGeometry relative="1" as="geometry"/>
        </mxCell>
        <mxCell id="EUaZMrfHuvkhfZzwmmWV-24" style="edgeStyle=orthogonalEdgeStyle;rounded=0;orthogonalLoop=1;jettySize=auto;html=1;exitX=1;exitY=0.5;exitDx=0;exitDy=0;entryX=0;entryY=0.5;entryDx=0;entryDy=0;startArrow=diamondThin;startFill=1;endArrow=none;endFill=0;" parent="1" source="EUaZMrfHuvkhfZzwmmWV-16" target="EUaZMrfHuvkhfZzwmmWV-10" edge="1">
          <mxGeometry relative="1" as="geometry"/>
        </mxCell>
        <mxCell id="EUaZMrfHuvkhfZzwmmWV-16" value="Deployment" style="swimlane;fontStyle=0;childLayout=stackLayout;horizontal=1;startSize=26;fillColor=none;horizontalStack=0;resizeParent=1;resizeParentMax=0;resizeLast=0;collapsible=1;marginBottom=0;" parent="1" vertex="1" collapsed="1">
          <mxGeometry x="420" y="184" width="100" height="26" as="geometry">
            <mxRectangle x="90" y="210" width="140" height="52" as="alternateBounds"/>
          </mxGeometry>
        </mxCell>
        <mxCell id="EUaZMrfHuvkhfZzwmmWV-17" value="status: enum" style="text;strokeColor=none;fillColor=none;align=left;verticalAlign=top;spacingLeft=4;spacingRight=4;overflow=hidden;rotatable=0;points=[[0,0.5],[1,0.5]];portConstraint=eastwest;" parent="EUaZMrfHuvkhfZzwmmWV-16" vertex="1">
          <mxGeometry y="26" width="100" height="26" as="geometry"/>
        </mxCell>
      </root>
    </mxGraphModel>
  </diagram>
</mxfile>
